<?xml version="1.0" encoding="UTF-8" standalone="no"?>
<!-- Created with Inkscape (http://www.inkscape.org/) -->

<svg
   xmlns:dc="http://purl.org/dc/elements/1.1/"
   xmlns:cc="http://creativecommons.org/ns#"
   xmlns:rdf="http://www.w3.org/1999/02/22-rdf-syntax-ns#"
   xmlns:svg="http://www.w3.org/2000/svg"
   xmlns="http://www.w3.org/2000/svg"
   xmlns:sodipodi="http://sodipodi.sourceforge.net/DTD/sodipodi-0.dtd"
   xmlns:inkscape="http://www.inkscape.org/namespaces/inkscape"
   width="256mm"
   height="256mm"
   viewBox="0 0 256 256"
   version="1.1"
   id="svg24257"
   inkscape:version="0.92.4 5da689c313, 2019-01-14"
   sodipodi:docname="logo.svg">
  <defs
     id="defs24251" />
  <sodipodi:namedview
     id="base"
     pagecolor="#ffffff"
     bordercolor="#666666"
     borderopacity="1.0"
     inkscape:pageopacity="0.0"
     inkscape:pageshadow="2"
     inkscape:zoom="0.35"
     inkscape:cx="388.22459"
     inkscape:cy="428.54855"
     inkscape:document-units="mm"
     inkscape:current-layer="layer1"
     showgrid="false"
     inkscape:window-width="1860"
     inkscape:window-height="961"
     inkscape:window-x="30"
     inkscape:window-y="52"
     inkscape:window-maximized="0" />
  <metadata
     id="metadata24254">
    <rdf:RDF>
      <cc:Work
         rdf:about="">
        <dc:format>image/svg+xml</dc:format>
        <dc:type
           rdf:resource="http://purl.org/dc/dcmitype/StillImage" />
        <dc:title></dc:title>
      </cc:Work>
    </rdf:RDF>
  </metadata>
  <g
     inkscape:label="Layer 1"
     inkscape:groupmode="layer"
     id="layer1"
     transform="translate(0,-41)">
    <g
       id="g11546"
       transform="matrix(0.42703145,0,0,0.42703145,-581.59788,100.52332)"
       style="fill:#000000;fill-opacity:1">
      <path
         inkscape:connector-curvature="0"
         id="path4687-7-8-5-1-9-9-3"
         d="m 1683.3595,-67.756215 c 14.6504,10.75195 29.3008,21.5039 43.9512,32.25586 17.4863,-12.76042 34.9727,-25.52084 52.459,-38.28125 -32.1367,2.00846 -64.2735,4.01693 -96.4102,6.02539 z"
         style="fill:#000000;fill-opacity:1;stroke:none;stroke-width:3.16659737;stroke-linecap:round;stroke-linejoin:round;stroke-opacity:1" />
      <path
         inkscape:connector-curvature="0"
         id="path4689-7-5-2-7-8-0-2"
         d="m 1794.5841,-36.314814 c 17.293,-0.921872 34.586,-1.843751 51.8789,-2.765621 -19.1243,-11.10026 -38.2486,-22.20052 -57.373,-33.30078 1.8314,12.02213 3.6627,24.04427 5.4941,36.066401 z"
         style="fill:#000000;fill-opacity:1;stroke:none;stroke-width:3.16659737;stroke-linecap:round;stroke-linejoin:round;stroke-opacity:1" />
      <path
         inkscape:connector-curvature="0"
         id="path4691-2-3-4-2-0-3-9"
         d="m 1733.5998,-35.137074 c 18.9869,-0.34766 37.9739,-0.695312 56.9609,-1.042972 -1.8522,-12.156249 -3.7044,-24.312499 -5.5566,-36.468749 -17.1348,12.50391 -34.2696,25.00781 -51.4043,37.511721 z"
         style="fill:#000000;fill-opacity:1;stroke:none;stroke-width:3.16659737;stroke-linecap:round;stroke-linejoin:round;stroke-opacity:1" />
      <path
         inkscape:connector-curvature="0"
         id="path4693-6-9-4-4-2-0-5"
         d="m 1579.8712,-21.080434 c 23.1524,4.19857 46.3047,8.39714 69.4571,12.5956991 8.1575,-18.9544191 16.3151,-37.9088491 24.4726,-56.8632801 -31.3099,14.75586 -62.6198,29.511721 -93.9297,44.267581 z"
         style="fill:#000000;fill-opacity:1;stroke:none;stroke-width:3.16659737;stroke-linecap:round;stroke-linejoin:round;stroke-opacity:1" />
      <path
         inkscape:connector-curvature="0"
         id="path4695-45-4-3-1-4-3-4"
         d="m 1654.174,-9.6194929 c 22.9616,-8.0130201 45.9232,-16.0260401 68.8847,-24.0390631 -14.8294,-10.882818 -29.6588,-21.765629 -44.4882,-32.648439 -8.1322,18.89583 -16.2644,37.791661 -24.3965,56.6875021 z"
         style="fill:#000000;fill-opacity:1;stroke:none;stroke-width:3.16659737;stroke-linecap:round;stroke-linejoin:round;stroke-opacity:1" />
      <path
         inkscape:connector-curvature="0"
         id="path4697-2-1-8-6-9-3-3"
         d="m 1604.6876,32.571905 c 13.8321,-12.520179 27.6641,-25.0403599 41.4961,-37.5605389 -23.013,-4.17318 -46.026,-8.3463611 -69.039,-12.5195301 9.181,16.69335911 18.362,33.38671 27.5429,50.080069 z"
         style="fill:#000000;fill-opacity:1;stroke:none;stroke-width:3.16659737;stroke-linecap:round;stroke-linejoin:round;stroke-opacity:1" />
      <path
         inkscape:connector-curvature="0"
         id="path4699-0-5-6-5-0-7-9"
         d="m 1797.9494,-32.486685 c 24.362,21.033852 48.7239,42.0677111 73.0859,63.10156 -6.4121,-21.9908789 -12.8242,-43.98177 -19.2363,-65.972649 -17.9499,0.95703 -35.8998,1.91406 -53.8496,2.871089 z"
         style="fill:#000000;fill-opacity:1;stroke:none;stroke-width:3.16659737;stroke-linecap:round;stroke-linejoin:round;stroke-opacity:1" />
      <path
         inkscape:connector-curvature="0"
         id="path4701-2-4-0-7-1-9-4"
         d="m 1502.2697,45.812145 c 32.901,-3.89909 65.8021,-7.79818 98.7031,-11.69727 -9.3828,-17.059889 -18.7656,-34.11978789 -28.1484,-51.17969 -23.5183,20.9589901 -47.0365,41.917972 -70.5547,62.87696 z"
         style="fill:#000000;fill-opacity:1;stroke:none;stroke-width:3.16659737;stroke-linecap:round;stroke-linejoin:round;stroke-opacity:1" />
      <path
         inkscape:connector-curvature="0"
         id="path4707-9-5-9-5-2-4-9"
         d="m 1502.7209,49.786755 c 23.5481,12.67969 47.0963,25.35937 70.6445,38.03906 9.0573,-16.54362 18.1146,-33.08724 27.1719,-49.63086 -32.6055,3.86393 -65.211,7.72787 -97.8164,11.5918 z"
         style="fill:#000000;fill-opacity:1;stroke:none;stroke-width:3.16659737;stroke-linecap:round;stroke-linejoin:round;stroke-opacity:1" />
      <path
         inkscape:connector-curvature="0"
         id="path4709-9-5-2-9-0-9-5"
         d="m 1449.8771,72.069955 c 12.5267,8.4668 25.0534,16.93359 37.5801,25.40039 2.0879,-15.19401 4.1758,-30.38802 6.2637,-45.58203 -14.6146,6.72721 -29.2292,13.45443 -43.8438,20.18164 z"
         style="fill:#000000;fill-opacity:1;stroke:none;stroke-width:3.16659737;stroke-linecap:round;stroke-linejoin:round;stroke-opacity:1" />
      <path
         inkscape:connector-curvature="0"
         id="path4711-4-4-2-2-0-9-5"
         d="m 1491.3341,98.626595 c 25.4479,-3.10677 50.8959,-6.21354 76.3438,-9.32031 -23.2975,-12.54427 -46.5951,-25.08854 -69.8926,-37.63281 -2.1504,15.65104 -4.3008,31.30208 -6.4512,46.95312 z"
         style="fill:#000000;fill-opacity:1;stroke:none;stroke-width:3.16659737;stroke-linecap:round;stroke-linejoin:round;stroke-opacity:1" />
      <path
         inkscape:connector-curvature="0"
         id="path4715-5-9-3-7-6-1-7"
         d="m 1576.4005,92.407845 c 1.2787,10.866545 2.5573,21.733075 3.836,32.599615 6.3919,-11.29297 12.7838,-22.58594 19.1758,-33.878915 -7.6706,0.42644 -15.3412,0.85287 -23.0118,1.2793 z"
         style="fill:#000000;fill-opacity:1;stroke:none;stroke-width:3.16659737;stroke-linecap:round;stroke-linejoin:round;stroke-opacity:1" />
      <path
         inkscape:connector-curvature="0"
         id="path4717-1-8-1-3-3-9-3"
         d="m 1583.7091,126.99184 c 10.5163,-4.72136 21.0326,-9.44271 31.5489,-14.16407 -4.0782,-6.65364 -8.1563,-13.307295 -12.2344,-19.960935 -6.4382,11.375005 -12.8763,22.750005 -19.3145,34.125005 z"
         style="fill:#000000;fill-opacity:1;stroke:none;stroke-width:3.16659737;stroke-linecap:round;stroke-linejoin:round;stroke-opacity:1" />
      <path
         inkscape:connector-curvature="0"
         id="path4723-3-8-3-4-9-4-9"
         d="m 1422.1252,109.79457 c 20.5273,-3.3444 41.0546,-6.6888 61.582,-10.033205 -12.4551,-8.41862 -24.9102,-16.83724 -37.3653,-25.25586 -8.0722,11.76302 -16.1445,23.52604 -24.2167,35.289065 z"
         style="fill:#000000;fill-opacity:1;stroke:none;stroke-width:3.16659737;stroke-linecap:round;stroke-linejoin:round;stroke-opacity:1" />
      <path
         inkscape:connector-curvature="0"
         id="path4725-7-5-4-7-0-2-0"
         d="m 1497.9709,101.84535 c 26.2128,8.85417 52.4257,17.70833 78.6386,26.5625 -1.3984,-11.88346 -2.7969,-23.76693 -4.1953,-35.650395 -24.8144,3.0293 -49.6289,6.05859 -74.4433,9.087895 z"
         style="fill:#000000;fill-opacity:1;stroke:none;stroke-width:3.16659737;stroke-linecap:round;stroke-linejoin:round;stroke-opacity:1" />
      <path
         inkscape:connector-curvature="0"
         id="path4727-8-2-2-9-8-0-7"
         d="m 1534.1935,172.87465 c 13.6882,-13.56706 27.3763,-27.13412 41.0645,-40.70117 -27.2559,-9.20704 -54.5118,-18.41407 -81.7676,-27.6211 13.5677,22.77409 27.1354,45.54818 40.7031,68.32227 z"
         style="fill:#000000;fill-opacity:1;stroke:none;stroke-width:3.16659737;stroke-linecap:round;stroke-linejoin:round;stroke-opacity:1" />
      <path
         inkscape:connector-curvature="0"
         id="path4729-8-2-2-7-3-6-2"
         d="m 1421.5255,113.94496 c 17.2207,21.55534 34.4414,43.11068 51.6622,64.66602 4.4505,-25.08594 8.901,-50.17188 13.3515,-75.25782 -21.6712,3.5306 -43.3424,7.0612 -65.0137,10.5918 z"
         style="fill:#000000;fill-opacity:1;stroke:none;stroke-width:3.16659737;stroke-linecap:round;stroke-linejoin:round;stroke-opacity:1" />
      <path
         inkscape:connector-curvature="0"
         id="path4733-04-7-5-2-8-5-7"
         d="m 1380.6896,130.83168 c 5.0352,16.13737 10.0703,32.27474 15.1055,48.41211 6.2955,-21.0586 12.5911,-42.11719 18.8867,-63.17578 -11.3307,4.92122 -22.6615,9.84245 -33.9922,14.76367 z"
         style="fill:#000000;fill-opacity:1;stroke:none;stroke-width:3.16659737;stroke-linecap:round;stroke-linejoin:round;stroke-opacity:1" />
      <path
         inkscape:connector-curvature="0"
         id="path4735-6-0-1-1-7-9-2"
         d="m 1476.8263,180.99965 c 17.8887,-2.17318 35.7774,-4.34636 53.666,-6.51953 -13.4869,-22.63867 -26.9739,-45.27735 -40.4609,-67.91602 -4.4017,24.81185 -8.8034,49.6237 -13.2051,74.43555 z"
         style="fill:#000000;fill-opacity:1;stroke:none;stroke-width:3.16659737;stroke-linecap:round;stroke-linejoin:round;stroke-opacity:1" />
      <path
         inkscape:connector-curvature="0"
         id="path4739-7-3-7-6-3-5-9"
         d="m 1398.549,183.99574 c 23.931,-0.847 47.862,-1.69401 71.7929,-2.54101 -17.2304,-21.56706 -34.4609,-43.13412 -51.6914,-64.70118 -6.7005,22.41407 -13.401,44.82813 -20.1015,67.24219 z"
         style="fill:#000000;fill-opacity:1;stroke:none;stroke-width:3.16659737;stroke-linecap:round;stroke-linejoin:round;stroke-opacity:1" />
      <path
         inkscape:connector-curvature="0"
         id="path4743-6-4-5-3-1-6-0"
         d="m 1537.6994,175.0309 c 24.5514,6.25846 49.1028,12.51693 73.6543,18.77539 -10.9519,-19.73763 -21.9037,-39.47526 -32.8555,-59.21289 -13.5996,13.47916 -27.1992,26.95833 -40.7988,40.4375 z"
         style="fill:#000000;fill-opacity:1;stroke:none;stroke-width:3.16659737;stroke-linecap:round;stroke-linejoin:round;stroke-opacity:1" />
      <path
         inkscape:connector-curvature="0"
         id="path4757-5-3-9-5-0-1-5"
         d="m 1476.0275,185.12855 c -4.1387,18.43946 -8.2774,36.87891 -12.416,55.31836 21.4811,-20.54686 42.9622,-41.09374 64.4433,-61.64062 -17.3424,2.10742 -34.6849,4.21484 -52.0273,6.32226 z"
         style="fill:#000000;fill-opacity:1;stroke:none;stroke-width:3.16659737;stroke-linecap:round;stroke-linejoin:round;stroke-opacity:1" />
      <path
         inkscape:connector-curvature="0"
         id="path4759-9-3-8-6-0-1-0"
         d="m 1546.0998,273.8102 c 21.8737,-25.26106 43.7474,-50.52213 65.6211,-75.7832 -25.2162,-6.42839 -50.4323,-12.85678 -75.6485,-19.28516 3.3425,31.68946 6.6849,63.3789 10.0274,95.06836 z"
         style="fill:#000000;fill-opacity:1;stroke:none;stroke-width:3.16659737;stroke-linecap:round;stroke-linejoin:round;stroke-opacity:1" />
      <path
         inkscape:connector-curvature="0"
         id="path4761-7-4-1-5-5-4-4"
         d="m 1463.881,245.72622 c 26.1283,9.94986 52.2565,19.89973 78.3848,29.8496 -3.3477,-31.73957 -6.6953,-63.47918 -10.043,-95.21875 -22.7806,21.78971 -45.5612,43.57944 -68.3418,65.36915 z"
         style="fill:#000000;fill-opacity:1;stroke:none;stroke-width:3.16659737;stroke-linecap:round;stroke-linejoin:round;stroke-opacity:1" />
      <path
         inkscape:connector-curvature="0"
         id="path4765-5-3-3-0-0-3-1"
         d="m 1686.549,309.58364 c 18.5351,-14.86654 37.0703,-29.73308 55.6054,-44.59962 -21.9811,-5.79752 -43.9622,-11.59505 -65.9433,-17.39257 3.446,20.66406 6.8919,41.32813 10.3379,61.99219 z"
         style="fill:#000000;fill-opacity:1;stroke:none;stroke-width:3.16659737;stroke-linecap:round;stroke-linejoin:round;stroke-opacity:1" />
      <path
         inkscape:connector-curvature="0"
         id="path4767-3-9-3-3-3-7-7"
         d="m 1462.9767,311.42152 c 25.429,-10.90298 50.8581,-21.80598 76.2871,-32.70898 -25.6725,-9.77668 -51.345,-19.55337 -77.0176,-29.33007 0.2435,20.67967 0.487,41.35937 0.7305,62.03905 z"
         style="fill:#000000;fill-opacity:1;stroke:none;stroke-width:3.16659737;stroke-linecap:round;stroke-linejoin:round;stroke-opacity:1" />
      <path
         inkscape:connector-curvature="0"
         id="path4769-3-7-7-4-18-2-9"
         d="m 1550.3283,275.03872 c 39.7005,-10.37175 79.401,-20.7435 119.1015,-31.11524 -17.9472,-14.75132 -35.8945,-29.5026 -53.8418,-44.25392 -21.7532,25.12306 -43.5065,50.2461 -65.2597,75.36916 z"
         style="fill:#000000;fill-opacity:1;stroke:none;stroke-width:3.16659737;stroke-linecap:round;stroke-linejoin:round;stroke-opacity:1" />
      <path
         inkscape:connector-curvature="0"
         id="path4771-8-2-9-6-0-7-3"
         d="m 1831.2072,331.50159 c 16.4824,-11.14451 32.9648,-22.28905 49.4472,-33.43357 -17.095,-7.12239 -34.19,-14.24479 -51.2851,-21.36719 0.6126,18.26691 1.2252,36.53385 1.8379,54.80076 z"
         style="fill:#000000;fill-opacity:1;stroke:none;stroke-width:3.16659737;stroke-linecap:round;stroke-linejoin:round;stroke-opacity:1" />
      <path
         inkscape:connector-curvature="0"
         id="path4773-3-5-8-6-1-3-6"
         d="m 1827.1798,330.70279 c -0.6178,-18.42058 -1.2356,-36.84117 -1.8535,-55.26175 -24.1803,-2.87237 -48.3607,-5.74476 -72.541,-8.61716 24.7982,21.29295 49.5963,42.58593 74.3945,63.87891 z"
         style="fill:#000000;fill-opacity:1;stroke:none;stroke-width:3.16659737;stroke-linecap:round;stroke-linejoin:round;stroke-opacity:1" />
      <path
         inkscape:connector-curvature="0"
         id="path4775-7-8-6-0-7-3-2"
         d="m 1552.7209,278.54849 c 43.3151,10.68748 86.6302,21.37498 129.9453,32.0625 -3.5163,-21.08464 -7.0326,-42.16929 -10.5489,-63.25391 -39.7988,10.39712 -79.5976,20.79427 -119.3964,31.19141 z"
         style="fill:#000000;fill-opacity:1;stroke:none;stroke-width:3.16659737;stroke-linecap:round;stroke-linejoin:round;stroke-opacity:1" />
      <path
         inkscape:connector-curvature="0"
         id="path4777-9-9-7-2-9-9-1"
         d="m 1899.2892,349.52115 c 14.4733,2.93944 28.9466,5.87891 43.4199,8.81835 -18.0918,-18.09181 -36.1836,-36.1836 -54.2753,-54.27538 3.6184,15.15234 7.2369,30.30468 10.8554,45.45703 z"
         style="fill:#000000;fill-opacity:1;stroke:none;stroke-width:3.16659737;stroke-linecap:round;stroke-linejoin:round;stroke-opacity:1" />
      <path
         inkscape:connector-curvature="0"
         id="path4779-3-0-0-5-1-2-2"
         d="m 1834.2365,334.28287 c 20.235,4.7526 40.47,9.50521 60.7051,14.25781 -3.7898,-15.87241 -7.5795,-31.74481 -11.3692,-47.61719 -16.4453,11.11977 -32.8906,22.23957 -49.3359,33.35938 z"
         style="fill:#000000;fill-opacity:1;stroke:none;stroke-width:3.16659737;stroke-linecap:round;stroke-linejoin:round;stroke-opacity:1" />
      <path
         inkscape:connector-curvature="0"
         id="path4781-7-2-4-8-0-4-5"
         d="m 1598.2052,368.83364 c 27.349,-18.23307 54.698,-36.46614 82.0469,-54.69922 -43.873,-10.82487 -87.7461,-21.64974 -131.6191,-32.47461 16.524,29.05794 33.0481,58.11589 49.5722,87.17383 z"
         style="fill:#000000;fill-opacity:1;stroke:none;stroke-width:3.16659737;stroke-linecap:round;stroke-linejoin:round;stroke-opacity:1" />
      <path
         inkscape:connector-curvature="0"
         id="path4783-8-4-8-9-3-4-3"
         d="m 1688.1818,313.40589 c 20.7402,19.61915 41.4805,39.23829 62.2207,58.85744 -1.8952,-34.73503 -3.7904,-69.47006 -5.6855,-104.20509 -18.8451,15.11588 -37.6902,30.23177 -56.5352,45.34765 z"
         style="fill:#000000;fill-opacity:1;stroke:none;stroke-width:3.16659737;stroke-linecap:round;stroke-linejoin:round;stroke-opacity:1" />
      <path
         inkscape:connector-curvature="0"
         id="path4785-7-7-4-5-5-4-9"
         d="m 1754.4943,373.88443 c 23.7799,-13.02149 47.5599,-26.04299 71.3398,-39.06446 -25.694,-22.06252 -51.388,-44.12501 -77.082,-66.1875 1.9141,35.08398 3.8281,70.16797 5.7422,105.25196 z"
         style="fill:#000000;fill-opacity:1;stroke:none;stroke-width:3.16659737;stroke-linecap:round;stroke-linejoin:round;stroke-opacity:1" />
      <path
         inkscape:connector-curvature="0"
         id="path4789-4-6-8-0-94-9-1"
         d="m 1463.424,315.58363 c 6.3346,21.9284 12.6693,43.85677 19.0039,65.78518 19.1315,-32.84768 38.263,-65.69533 57.3945,-98.54298 -25.4661,10.91927 -50.9323,21.83855 -76.3984,32.7578 z"
         style="fill:#000000;fill-opacity:1;stroke:none;stroke-width:3.16659737;stroke-linecap:round;stroke-linejoin:round;stroke-opacity:1" />
      <path
         inkscape:connector-curvature="0"
         id="path4791-1-5-1-6-8-9-8"
         d="m 1875.6427,394.49185 c 6.3881,-13.95833 12.7761,-27.91667 19.1641,-41.875 -20.2096,-4.74609 -40.4193,-9.49219 -60.6289,-14.23829 13.8216,18.70443 27.6432,37.40886 41.4648,56.11329 z"
         style="fill:#000000;fill-opacity:1;stroke:none;stroke-width:3.16659737;stroke-linecap:round;stroke-linejoin:round;stroke-opacity:1" />
      <path
         sodipodi:nodetypes="cccccc"
         inkscape:connector-curvature="0"
         id="path8246-0-6-8-6-3-8"
         d="m 1733.6818,-6.2777049 32.6625,10.496862 32.2105,24.1574379 c 0,0 4.4467,-15.640619 6.67,-23.4609379 -11.7781,-5.20096999 -23.3223,-11.908362 -35.2466,-16.1669711 z"
         style="fill:#000000;fill-opacity:1;stroke:none;stroke-width:3.16659737;stroke-linecap:round;stroke-linejoin:round;stroke-opacity:1" />
      <path
         inkscape:connector-curvature="0"
         id="path8252-0-2-5-92-8-7"
         d="m 1801.8791,31.310185 c 6.8672,9.10417 13.7343,18.20834 20.6015,27.3125 -4.929,-15.92057 -9.858,-31.84114 -14.7871,-47.761708 -1.9381,6.816399 -3.8763,13.632809 -5.8144,20.449208 z"
         style="fill:#000000;fill-opacity:1;stroke:none;stroke-width:3.16659737;stroke-linecap:round;stroke-linejoin:round;stroke-opacity:1" />
    </g>
  </g>
</svg>
