<?xml version="1.0" encoding="UTF-8" standalone="no"?>
<svg
   xmlns:dc="http://purl.org/dc/elements/1.1/"
   xmlns:cc="http://creativecommons.org/ns#"
   xmlns:rdf="http://www.w3.org/1999/02/22-rdf-syntax-ns#"
   xmlns:svg="http://www.w3.org/2000/svg"
   xmlns="http://www.w3.org/2000/svg"
   width="2709mm"
   height="938mm"
   viewBox="0 0 2709 938"
   version="1.1"
   id="svg8">
  <defs
     id="defs2" />
  <metadata
     id="metadata5">
    <rdf:RDF>
      <cc:Work
         rdf:about="">
        <dc:format>image/svg+xml</dc:format>
        <dc:type
           rdf:resource="http://purl.org/dc/dcmitype/StillImage" />
        <dc:title></dc:title>
      </cc:Work>
    </rdf:RDF>
  </metadata>
  <g
     id="layer1">
    <path
       id="path1286"
       style="fill:#709fb0;fill-opacity:1;stroke:none;stroke-width:0.999999px;stroke-linecap:butt;stroke-linejoin:miter;stroke-opacity:1"
       d="M 5324.166 1296.4219 C 5320.5493 1296.4219 5316.8194 1296.6641 5312.9766 1297.1484 C 5309.1338 1297.6328 5305.1782 1298.3594 5301.1094 1299.3281 C 5297.1697 1300.2969 5293.1811 1301.5389 5289.1445 1303.0566 C 5285.108 1304.5744 5281.024 1306.3669 5276.8906 1308.4336 C 5272.5634 1310.6941 5268.4776 1313.1654 5264.6348 1315.8457 C 5260.792 1318.526 5257.1924 1321.4156 5253.834 1324.5156 C 5252.0902 1326.0657 5250.3857 1327.7132 5248.7227 1329.457 C 5247.0596 1331.2008 5245.4378 1333.041 5243.8555 1334.9785 C 5242.2731 1336.9161 5240.7301 1338.9507 5239.2285 1341.082 C 5237.7269 1343.2133 5236.2666 1345.4406 5234.8457 1347.7656 C 5233.1019 1350.6397 5231.5241 1353.4908 5230.1113 1356.3164 C 5228.6985 1359.142 5227.4509 1361.9416 5226.3691 1364.7188 C 5225.2873 1367.4959 5224.3699 1370.2498 5223.6191 1372.9785 C 5222.8683 1375.7072 5222.2831 1378.4115 5221.8633 1381.0918 C 5221.2174 1384.0627 5220.5716 1387.6788 5219.9258 1391.9414 C 5219.5383 1395.429 5219.3457 1399.1754 5219.3457 1403.1797 C 5219.3457 1406.7964 5219.5181 1410.352 5219.8652 1413.8477 C 5220.2124 1417.3433 5220.7334 1420.7797 5221.4277 1424.1543 C 5222.122 1427.5289 5222.9898 1430.8422 5224.0312 1434.0957 C 5225.0727 1437.3492 5226.2872 1440.5415 5227.6758 1443.6738 C 5228.9352 1446.7739 5230.3535 1449.7975 5231.9277 1452.7441 C 5233.502 1455.6908 5235.2339 1458.5622 5237.123 1461.3555 C 5239.0122 1464.1488 5241.0578 1466.864 5243.2617 1469.5039 C 5245.4657 1472.1438 5247.8269 1474.7068 5250.3457 1477.1934 C 5252.7353 1479.6476 5255.2305 1481.9648 5257.8301 1484.1445 C 5260.4296 1486.3243 5263.1339 1488.3682 5265.9434 1490.2734 C 5268.7528 1492.1787 5271.6662 1493.9454 5274.6855 1495.5762 C 5277.7049 1497.2069 5280.8294 1498.7004 5284.0586 1500.0566 C 5287.2878 1501.5098 5290.5665 1502.7812 5293.8926 1503.8711 C 5297.2187 1504.961 5300.5926 1505.8691 5304.0156 1506.5957 C 5307.4386 1507.3223 5310.9098 1507.8672 5314.4297 1508.2305 C 5317.9496 1508.5938 5321.518 1508.7754 5325.1348 1508.7754 C 5328.5901 1508.7754 5332.0301 1508.603 5335.4531 1508.2559 C 5338.8761 1507.9087 5342.2831 1507.3876 5345.6738 1506.6934 C 5349.0645 1505.9991 5352.4385 1505.1313 5355.7969 1504.0898 C 5359.1553 1503.0484 5362.4981 1501.8339 5365.8242 1500.4453 C 5368.9889 1499.1213 5372.0637 1497.659 5375.0508 1496.0605 C 5378.0378 1494.4621 5380.9367 1492.7265 5383.7461 1490.8535 C 5386.5555 1488.9806 5389.2764 1486.9697 5391.9082 1484.8223 C 5394.54 1482.6748 5397.0829 1480.3907 5399.5371 1477.9688 C 5401.9913 1475.5791 5404.3122 1473.0932 5406.5 1470.5098 C 5408.6878 1467.9264 5410.7427 1465.2459 5412.6641 1462.4688 C 5414.5855 1459.6916 5416.3743 1456.8186 5418.0293 1453.8477 C 5419.6843 1450.8768 5421.2052 1447.8072 5422.5938 1444.6426 C 5424.0146 1441.5425 5425.2586 1438.3539 5426.3242 1435.0762 C 5427.3899 1431.7985 5428.2778 1428.4319 5428.9883 1424.9766 C 5429.6987 1421.5213 5430.2307 1417.9786 5430.5859 1414.3457 C 5430.9412 1410.7128 5431.1191 1406.9902 5431.1191 1403.1797 C 5431.1191 1398.7233 5430.7962 1394.1055 5430.1504 1389.3262 C 5429.5045 1384.5469 5428.5358 1379.6061 5427.2441 1374.5039 C 5426.5337 1371.9528 5425.7374 1369.443 5424.8574 1366.9727 C 5423.9775 1364.5023 5423.0143 1362.0713 5421.9648 1359.6816 C 5420.9153 1357.292 5419.7796 1354.9437 5418.5605 1352.6348 C 5417.3415 1350.3259 5416.039 1348.0563 5414.6504 1345.8281 C 5413.1649 1343.5354 5411.5852 1341.2952 5409.9141 1339.1074 C 5408.2429 1336.9196 5406.4799 1334.784 5404.623 1332.7012 C 5402.7662 1330.6183 5400.8159 1328.5892 5398.7734 1326.6113 C 5396.7309 1324.6334 5394.5954 1322.7069 5392.3672 1320.834 C 5390.0421 1318.9287 5387.6131 1317.1124 5385.0781 1315.3848 C 5382.5432 1313.6571 5379.9031 1312.0188 5377.1582 1310.4688 C 5374.4133 1308.9187 5371.5641 1307.4564 5368.6094 1306.084 C 5365.6546 1304.7116 5362.5944 1303.4292 5359.4297 1302.2344 C 5356.3296 1301.201 5353.2951 1300.4891 5350.3242 1300.1016 C 5348.5158 1299.9724 5346.771 1299.7798 5345.0918 1299.5215 C 5343.5417 1299.134 5342.186 1298.8111 5341.0234 1298.5527 C 5339.9901 1298.4236 5336.6307 1297.8419 5330.9473 1296.8086 C 5325.7805 1296.5502 5323.5202 1296.4219 5324.166 1296.4219 z "
       transform="scale(0.26458333)" />
    <path
       id="path1476"
       style="fill:#709fb0;fill-opacity:1;stroke:none;stroke-width:0.999999px;stroke-linecap:butt;stroke-linejoin:miter;stroke-opacity:1"
       d="M 4748.4824 2053.5098 C 4746.7545 2053.5098 4745.0465 2053.6204 4743.3789 2053.8301 C 4741.7113 2054.0397 4740.0843 2054.3483 4738.5215 2054.7422 C 4736.9587 2055.1361 4735.4584 2055.6153 4734.0449 2056.168 C 4732.6314 2056.7207 4731.3037 2057.3471 4730.084 2058.0332 C 4728.8642 2058.7193 4727.753 2059.4657 4726.7715 2060.2598 C 4725.79 2061.0538 4724.9391 2061.8948 4724.2402 2062.7715 C 4723.5414 2063.6481 4722.9947 2064.5603 4722.623 2065.4941 C 4722.2514 2066.428 4722.0547 2067.384 4722.0547 2068.3496 C 4722.0547 2068.9086 4722.1588 2069.4521 4722.3594 2069.9746 C 4722.5599 2070.4971 4722.8574 2070.9982 4723.2402 2071.4746 C 4724.0059 2072.4275 4725.1169 2073.2788 4726.502 2073.9902 C 4727.887 2074.7017 4729.546 2075.2741 4731.4043 2075.668 C 4733.2626 2076.0618 4735.3205 2076.2773 4737.5059 2076.2773 C 4740.2502 2076.2773 4743.0191 2076.0609 4745.8047 2075.6289 C 4748.5903 2075.197 4751.3934 2074.5495 4754.2012 2073.6855 C 4757.009 2072.8216 4759.8219 2071.7412 4762.6328 2070.4453 C 4765.4438 2069.1494 4768.2518 2067.638 4771.0469 2065.9102 L 4771.0469 2055.7461 C 4766.9812 2055.0346 4763.0674 2054.4749 4759.3066 2054.0938 C 4755.5459 2053.7126 4751.9382 2053.5098 4748.4824 2053.5098 z "
       transform="scale(0.26458333)" />
    <path
       id="path952"
       style="fill:#709fb0;fill-opacity:1;stroke:none;stroke-width:0.999999px;stroke-linecap:butt;stroke-linejoin:miter;stroke-opacity:1"
       d="M 4382.5762 2053.5098 C 4380.8483 2053.5098 4379.1402 2053.6204 4377.4727 2053.8301 C 4375.8051 2054.0397 4374.178 2054.3483 4372.6152 2054.7422 C 4371.0524 2055.1361 4369.5522 2055.6153 4368.1387 2056.168 C 4366.7252 2056.7207 4365.3975 2057.3471 4364.1777 2058.0332 C 4362.958 2058.7193 4361.8468 2059.4657 4360.8652 2060.2598 C 4359.8837 2061.0538 4359.0328 2061.8948 4358.334 2062.7715 C 4357.6352 2063.6481 4357.0884 2064.5603 4356.7168 2065.4941 C 4356.3451 2066.428 4356.1484 2067.384 4356.1484 2068.3496 C 4356.1484 2068.9086 4356.2526 2069.4521 4356.4531 2069.9746 C 4356.6536 2070.4971 4356.9513 2070.9982 4357.334 2071.4746 C 4358.0994 2072.4275 4359.2109 2073.2788 4360.5957 2073.9902 C 4361.9805 2074.7017 4363.638 2075.2741 4365.4961 2075.668 C 4367.3542 2076.0618 4369.4123 2076.2773 4371.5977 2076.2773 C 4374.342 2076.2773 4377.1109 2076.0609 4379.8965 2075.6289 C 4382.682 2075.197 4385.4833 2074.5495 4388.291 2073.6855 C 4391.0988 2072.8216 4393.9136 2071.7412 4396.7246 2070.4453 C 4399.5356 2069.1494 4402.3435 2067.638 4405.1387 2065.9102 L 4405.1387 2055.7461 C 4401.073 2055.0346 4397.1607 2054.4749 4393.4004 2054.0938 C 4389.6401 2053.7126 4386.032 2053.5098 4382.5762 2053.5098 z "
       transform="scale(0.26458333)" />
    <path
       id="path950"
       style="fill:#709fb0;fill-opacity:1;stroke:none;stroke-width:0.999999px;stroke-linecap:butt;stroke-linejoin:miter;stroke-opacity:1"
       d="M 5971.0195 2022.2051 C 5969.1646 2022.2051 5967.3537 2022.3195 5965.5996 2022.541 C 5963.8455 2022.7625 5962.149 2023.0908 5960.5195 2023.5195 C 5958.8901 2023.9483 5957.3286 2024.4779 5955.8477 2025.0996 C 5954.3667 2025.7213 5952.9649 2026.4359 5951.6562 2027.2363 C 5950.3476 2028.0367 5949.132 2028.922 5948.0195 2029.8867 C 5946.907 2030.8515 5945.8984 2031.8949 5945.0059 2033.0098 C 5944.1133 2034.1246 5943.3363 2035.3118 5942.6875 2036.5625 C 5942.0387 2037.8132 5941.5178 2039.1278 5941.1367 2040.5 L 6000.9023 2040.5 C 6000.4958 2039.1024 5999.9556 2037.7684 5999.293 2036.5039 C 5998.6303 2035.2394 5997.8446 2034.0434 5996.9473 2032.9238 C 5996.0499 2031.8042 5995.0402 2030.7616 5993.9297 2029.7988 C 5992.8192 2028.836 5991.6089 2027.9542 5990.3066 2027.1602 C 5989.0043 2026.3661 5987.6113 2025.6583 5986.1387 2025.0449 C 5984.6661 2024.4315 5983.1137 2023.913 5981.4922 2023.4922 C 5979.8707 2023.0714 5978.1786 2022.7496 5976.4297 2022.5332 C 5974.6807 2022.3168 5972.8745 2022.2051 5971.0195 2022.2051 z "
       transform="scale(0.26458333)" />
    <path
       id="path948"
       style="fill:#709fb0;fill-opacity:1;stroke:none;stroke-width:0.999999px;stroke-linecap:butt;stroke-linejoin:miter;stroke-opacity:1"
       d="M 5119.2676 2022.2051 C 5116.9552 2022.2051 5114.7125 2022.3855 5112.5586 2022.7324 C 5110.4047 2023.0794 5108.3391 2023.5921 5106.3809 2024.2559 C 5104.4227 2024.9196 5102.5728 2025.7351 5100.8477 2026.6855 C 5099.1225 2027.636 5097.5231 2028.7228 5096.0684 2029.9297 C 5094.6136 2031.1366 5093.3033 2032.4633 5092.1562 2033.8965 C 5091.0092 2035.3297 5090.0247 2036.8687 5089.2227 2038.498 C 5088.4206 2040.1274 5087.8005 2041.8472 5087.3809 2043.6426 C 5086.9612 2045.4379 5086.7422 2047.3091 5086.7422 2049.2402 C 5086.7422 2051.146 5086.962 2052.9978 5087.3809 2054.7793 C 5087.7997 2056.5608 5088.4179 2058.2718 5089.2168 2059.8965 C 5090.0157 2061.5212 5090.9949 2063.0588 5092.1348 2064.4941 C 5093.2747 2065.9295 5094.5755 2067.2632 5096.0176 2068.4766 C 5097.4596 2069.6899 5099.0428 2070.7833 5100.748 2071.7422 C 5102.4533 2072.7011 5104.2813 2073.5255 5106.2109 2074.1973 C 5108.1406 2074.8691 5110.1721 2075.388 5112.2871 2075.7402 C 5114.4021 2076.0924 5116.5998 2076.2773 5118.8613 2076.2773 C 5121.1229 2076.2773 5123.3206 2076.0924 5125.4355 2075.7402 C 5127.5505 2075.388 5129.5822 2074.8691 5131.5117 2074.1973 C 5133.4412 2073.5255 5135.2694 2072.7011 5136.9746 2071.7422 C 5138.6798 2070.7833 5140.2631 2069.6899 5141.7051 2068.4766 C 5143.147 2067.2632 5144.4461 2065.9295 5145.5859 2064.4941 C 5146.7257 2063.0588 5147.7051 2061.5212 5148.5039 2059.8965 C 5149.3027 2058.2718 5149.921 2056.5608 5150.3398 2054.7793 C 5150.7587 2052.9978 5150.9785 2051.146 5150.9785 2049.2402 C 5150.9785 2047.3599 5150.7598 2045.5273 5150.3418 2043.7598 C 5149.9237 2041.9922 5149.3054 2040.2898 5148.5098 2038.6699 C 5147.7142 2037.0501 5146.7401 2035.5134 5145.6074 2034.0762 C 5144.4747 2032.639 5143.1851 2031.3016 5141.7559 2030.082 C 5140.3266 2028.8624 5138.7576 2027.7601 5137.0723 2026.793 C 5135.3869 2025.8259 5133.5845 2024.9941 5131.6836 2024.3145 C 5129.7826 2023.6348 5127.7831 2023.1073 5125.707 2022.75 C 5123.631 2022.3927 5121.4783 2022.2051 5119.2676 2022.2051 z "
       transform="scale(0.26458333)" />
    <path
       id="path946"
       style="fill:#709fb0;fill-opacity:1;stroke:none;stroke-width:0.999999px;stroke-linecap:butt;stroke-linejoin:miter;stroke-opacity:1"
       d="M 4021.5469 2022.2051 C 4019.2345 2022.2051 4016.9918 2022.3855 4014.8379 2022.7324 C 4012.684 2023.0794 4010.6184 2023.5921 4008.6602 2024.2559 C 4006.702 2024.9196 4004.8521 2025.7351 4003.127 2026.6855 C 4001.4018 2027.636 3999.8024 2028.7228 3998.3477 2029.9297 C 3996.8929 2031.1366 3995.5826 2032.4633 3994.4355 2033.8965 C 3993.2885 2035.3297 3992.304 2036.8687 3991.502 2038.498 C 3990.6999 2040.1274 3990.0798 2041.8472 3989.6602 2043.6426 C 3989.2405 2045.4379 3989.0215 2047.3091 3989.0215 2049.2402 C 3989.0215 2051.146 3989.2413 2052.9978 3989.6602 2054.7793 C 3990.079 2056.5608 3990.6973 2058.2718 3991.4961 2059.8965 C 3992.2949 2061.5212 3993.2743 2063.0588 3994.4141 2064.4941 C 3995.5539 2065.9295 3996.853 2067.2632 3998.2949 2068.4766 C 3999.7369 2069.6899 4001.3202 2070.7833 4003.0254 2071.7422 C 4004.7306 2072.7011 4006.5588 2073.5255 4008.4883 2074.1973 C 4010.4178 2074.8691 4012.4495 2075.388 4014.5645 2075.7402 C 4016.6794 2076.0924 4018.8771 2076.2773 4021.1387 2076.2773 C 4023.4002 2076.2773 4025.5979 2076.0924 4027.7129 2075.7402 C 4029.8279 2075.388 4031.8594 2074.8691 4033.7891 2074.1973 C 4035.7187 2073.5255 4037.5467 2072.7011 4039.252 2071.7422 C 4040.9572 2070.7833 4042.5404 2069.6899 4043.9824 2068.4766 C 4045.4245 2067.2632 4046.7253 2065.9295 4047.8652 2064.4941 C 4049.0051 2063.0588 4049.9843 2061.5212 4050.7832 2059.8965 C 4051.5821 2058.2718 4052.2003 2056.5608 4052.6191 2054.7793 C 4053.038 2052.9978 4053.2578 2051.146 4053.2578 2049.2402 C 4053.2578 2047.3599 4053.0391 2045.5273 4052.6211 2043.7598 C 4052.203 2041.9922 4051.5847 2040.2898 4050.7891 2038.6699 C 4049.9935 2037.0501 4049.0194 2035.5134 4047.8867 2034.0762 C 4046.754 2032.639 4045.4644 2031.3016 4044.0352 2030.082 C 4042.6059 2028.8624 4041.0369 2027.7601 4039.3516 2026.793 C 4037.6662 2025.8259 4035.8638 2024.9941 4033.9629 2024.3145 C 4032.0619 2023.6348 4030.0624 2023.1073 4027.9863 2022.75 C 4025.9103 2022.3927 4023.7576 2022.2051 4021.5469 2022.2051 z "
       transform="scale(0.26458333)" />
    <path
       id="path944"
       style="fill:#709fb0;fill-opacity:1;stroke:none;stroke-width:0.999999px;stroke-linecap:butt;stroke-linejoin:miter;stroke-opacity:1"
       d="M 6332.6562 2022.002 C 6330.7251 2022.002 6328.8388 2022.19 6327.0156 2022.5469 C 6325.1924 2022.9038 6323.4329 2023.4293 6321.7559 2024.1074 C 6320.0788 2024.7855 6318.4831 2025.6146 6316.9902 2026.5781 C 6315.4974 2027.5417 6314.1064 2028.6403 6312.8359 2029.8535 C 6311.5654 2031.0668 6310.4163 2032.395 6309.4062 2033.8223 C 6308.3962 2035.2495 6307.5259 2036.7753 6306.8145 2038.3809 C 6306.103 2039.9864 6305.5506 2041.6718 6305.1758 2043.4199 C 6304.801 2045.168 6304.6035 2046.979 6304.6035 2048.834 C 6304.6035 2050.7143 6304.801 2052.5468 6305.1758 2054.3145 C 6305.5506 2056.0821 6306.103 2057.7844 6306.8145 2059.4043 C 6307.5259 2061.0242 6308.3962 2062.5627 6309.4062 2064 C 6310.4163 2065.4373 6311.5654 2066.7744 6312.8359 2067.9941 C 6314.1064 2069.2139 6315.4974 2070.316 6316.9902 2071.2832 C 6318.4831 2072.2504 6320.0788 2073.082 6321.7559 2073.7617 C 6323.4329 2074.4415 6325.1924 2074.9688 6327.0156 2075.3262 C 6328.8388 2075.6835 6330.7251 2075.8711 6332.6562 2075.8711 C 6334.5874 2075.8711 6336.4778 2075.6827 6338.3066 2075.3262 C 6340.1354 2074.9696 6341.9032 2074.4442 6343.5898 2073.7676 C 6345.2765 2073.091 6346.8819 2072.2648 6348.3867 2071.3047 C 6349.8916 2070.3446 6351.2948 2069.252 6352.5781 2068.0449 C 6353.8614 2066.8379 6355.0248 2065.5151 6356.0469 2064.0977 C 6357.0689 2062.6802 6357.9508 2061.1675 6358.6719 2059.5762 C 6359.393 2057.9848 6359.9536 2056.3147 6360.334 2054.5859 C 6360.7144 2052.8572 6360.9141 2051.0698 6360.9141 2049.2402 C 6360.9141 2047.3345 6360.7197 2045.4804 6360.3496 2043.6934 C 6359.9795 2041.9064 6359.4337 2040.1869 6358.7285 2038.5527 C 6358.0233 2036.9186 6357.1597 2035.369 6356.1543 2033.9219 C 6355.1489 2032.4748 6354.0011 2031.1302 6352.7305 2029.9043 C 6351.4598 2028.6784 6350.0653 2027.5703 6348.5645 2026.5996 C 6347.0636 2025.6289 6345.456 2024.7945 6343.7598 2024.1133 C 6342.0636 2023.432 6340.2785 2022.9046 6338.4219 2022.5469 C 6336.5653 2022.1892 6334.6382 2022.002 6332.6562 2022.002 z "
       transform="scale(0.26458333)" />
    <path
       id="path942"
       style="fill:#709fb0;fill-opacity:1;stroke:none;stroke-width:0.999999px;stroke-linecap:butt;stroke-linejoin:miter;stroke-opacity:1"
       d="M 4137.2148 2022.002 C 4135.2837 2022.002 4133.3974 2022.19 4131.5742 2022.5469 C 4129.7511 2022.9038 4127.9915 2023.4293 4126.3145 2024.1074 C 4124.6374 2024.7855 4123.0417 2025.6146 4121.5488 2026.5781 C 4120.056 2027.5417 4118.665 2028.6403 4117.3945 2029.8535 C 4116.124 2031.0668 4114.9749 2032.395 4113.9648 2033.8223 C 4112.9548 2035.2495 4112.0845 2036.7753 4111.373 2038.3809 C 4110.6616 2039.9864 4110.1092 2041.6718 4109.7344 2043.4199 C 4109.3596 2045.168 4109.1621 2046.979 4109.1621 2048.834 C 4109.1621 2050.7143 4109.3596 2052.5468 4109.7344 2054.3145 C 4110.1092 2056.0821 4110.6616 2057.7844 4111.373 2059.4043 C 4112.0845 2061.0242 4112.9548 2062.5627 4113.9648 2064 C 4114.9749 2065.4373 4116.124 2066.7744 4117.3945 2067.9941 C 4118.665 2069.2139 4120.056 2070.316 4121.5488 2071.2832 C 4123.0417 2072.2504 4124.6374 2073.082 4126.3145 2073.7617 C 4127.9915 2074.4415 4129.7511 2074.9688 4131.5742 2075.3262 C 4133.3974 2075.6835 4135.2837 2075.8711 4137.2148 2075.8711 C 4139.146 2075.8711 4141.0365 2075.6827 4142.8652 2075.3262 C 4144.694 2074.9696 4146.4618 2074.4442 4148.1484 2073.7676 C 4149.835 2073.091 4151.4406 2072.2648 4152.9453 2071.3047 C 4154.4501 2070.3446 4155.8535 2069.252 4157.1367 2068.0449 C 4158.4199 2066.8379 4159.5816 2065.5151 4160.6035 2064.0977 C 4161.6255 2062.6802 4162.5075 2061.1675 4163.2285 2059.5762 C 4163.9495 2057.9848 4164.5103 2056.3147 4164.8906 2054.5859 C 4165.271 2052.8572 4165.4707 2051.0698 4165.4707 2049.2402 C 4165.4707 2047.3345 4165.2763 2045.4804 4164.9062 2043.6934 C 4164.5362 2041.9064 4163.9903 2040.1869 4163.2852 2038.5527 C 4162.58 2036.9186 4161.7162 2035.369 4160.7109 2033.9219 C 4159.7057 2032.4748 4158.5595 2031.1302 4157.2891 2029.9043 C 4156.0186 2028.6784 4154.6238 2027.5703 4153.123 2026.5996 C 4151.6223 2025.6289 4150.0145 2024.7945 4148.3184 2024.1133 C 4146.6222 2023.432 4144.837 2022.9046 4142.9805 2022.5469 C 4141.1239 2022.1892 4139.1969 2022.002 4137.2148 2022.002 z "
       transform="scale(0.26458333)" />
    <path
       id="path910"
       style="fill:#709fb0;fill-opacity:1;stroke:none;stroke-width:0.999999px;stroke-linecap:butt;stroke-linejoin:miter;stroke-opacity:1"
       d="M 5825.0625 1995.168 L 5825.0625 2073.0254 L 5847.627 2073.0254 C 5851.1844 2073.0254 5854.3757 2072.7242 5857.2383 2072.1699 C 5860.1009 2071.6157 5862.6338 2070.8089 5864.873 2069.7988 C 5867.1123 2068.7888 5869.0587 2067.5744 5870.7461 2066.207 C 5872.4335 2064.8396 5873.8634 2063.3177 5875.0703 2061.6914 C 5876.2773 2060.0651 5877.2606 2058.3355 5878.0586 2056.5488 C 5878.8566 2054.7622 5879.4691 2052.9189 5879.9297 2051.0703 C 5880.3902 2049.2217 5880.7 2047.3668 5880.8945 2045.5547 C 5881.0891 2043.7426 5881.168 2041.9739 5881.168 2040.2969 L 5881.168 2030.9453 C 5881.168 2028.4805 5880.9672 2026.0723 5880.5762 2023.7461 C 5880.1851 2021.4199 5879.6037 2019.1763 5878.8398 2017.0371 C 5878.076 2014.8979 5877.1301 2012.8627 5876.0117 2010.959 C 5874.8933 2009.0552 5873.6031 2007.282 5872.1484 2005.6621 C 5870.6937 2004.0422 5869.0755 2002.5766 5867.3027 2001.2891 C 5865.53 2000.0015 5863.6018 1998.8912 5861.5293 1997.9844 C 5859.4568 1997.0776 5857.2388 1996.3741 5854.8848 1995.8965 C 5852.5308 1995.4189 5850.0411 1995.168 5847.4238 1995.168 L 5825.0625 1995.168 z "
       transform="scale(0.26458333)" />
    <path
       id="path908"
       style="fill:#709fb0;fill-opacity:1;stroke:none;stroke-width:0.999999px;stroke-linecap:butt;stroke-linejoin:miter;stroke-opacity:1"
       d="M 3755.6543 1995.168 L 3755.6543 2032.3691 L 3779.6426 2032.3691 C 3781.3959 2032.3691 3783.0629 2032.2578 3784.6387 2032.041 C 3786.2145 2031.8242 3787.6996 2031.5026 3789.0859 2031.0801 C 3790.4723 2030.6576 3791.7603 2030.1346 3792.9453 2029.5176 C 3794.1304 2028.9005 3795.2118 2028.1892 3796.1836 2027.3887 C 3797.1554 2026.5882 3798.017 2025.6974 3798.7637 2024.7246 C 3799.5104 2023.7518 3800.1426 2022.6965 3800.6523 2021.5625 C 3801.162 2020.4285 3801.5497 2019.2157 3801.8105 2017.9316 C 3802.0713 2016.6476 3802.2051 2015.2921 3802.2051 2013.8691 C 3802.2051 2012.4208 3802.0713 2011.0417 3801.8105 2009.7383 C 3801.5497 2008.4348 3801.162 2007.2068 3800.6523 2006.0586 C 3800.1426 2004.9104 3799.5104 2003.842 3798.7637 2002.8594 C 3798.017 2001.8768 3797.1554 2000.9806 3796.1836 2000.1738 C 3795.2118 1999.3671 3794.1304 1998.6498 3792.9453 1998.0293 C 3791.7603 1997.4088 3790.4723 1996.8849 3789.0859 1996.4609 C 3787.6996 1996.0369 3786.2145 1995.7133 3784.6387 1995.4961 C 3783.0629 1995.2789 3781.3959 1995.168 3779.6426 1995.168 L 3755.6543 1995.168 z "
       transform="scale(0.26458333)" />
    <path
       id="path888"
       style="fill:#709fb0;fill-opacity:1;stroke:none;stroke-width:0.264583px;stroke-linecap:butt;stroke-linejoin:miter;stroke-opacity:1"
       d="M 2708.9999,938 V 203.33684 c 0,0 -346.6874,188.381 -644.7885,85.26044 C 1769.2896,186.57565 1526.7197,3.145 1005.0905,275.94999 483.46217,548.75498 227.96124,-108.0874 0,423.33425 V 938 Z" />
    <g
       aria-label="(Programmation || Design)"
       id="text1173"
       style="font-style:normal;font-variant:normal;font-weight:bold;font-stretch:normal;font-size:44.646px;line-height:1.25;font-family:FreeMono;-inkscape-font-specification:'FreeMono, Bold';font-variant-ligatures:normal;font-variant-caps:normal;font-variant-numeric:normal;font-variant-east-asian:normal;text-align:center;text-anchor:middle;stroke-width:1.11615" />
    <g
       aria-label="(Programmation || Design)"
       id="text837"
       style="font-style:normal;font-variant:normal;font-weight:bold;font-stretch:normal;font-size:53.7851px;line-height:1.25;font-family:FreeMono;-inkscape-font-specification:'FreeMono, Bold';font-variant-ligatures:normal;font-variant-caps:normal;font-variant-numeric:normal;font-variant-east-asian:normal;text-align:center;text-anchor:middle;stroke-width:1.34463" />
  </g>
</svg>
