<?xml version="1.0" encoding="UTF-8" standalone="no"?>
<svg
   xmlns:dc="http://purl.org/dc/elements/1.1/"
   xmlns:cc="http://creativecommons.org/ns#"
   xmlns:rdf="http://www.w3.org/1999/02/22-rdf-syntax-ns#"
   xmlns:svg="http://www.w3.org/2000/svg"
   xmlns="http://www.w3.org/2000/svg"
   width="256"
   height="256"
   viewBox="0 0 256 256"
   version="1.1"
   id="svg1641">
  <defs
     id="defs1635" />
  <metadata
     id="metadata1638">
    <rdf:RDF>
      <cc:Work
         rdf:about="">
        <dc:format>image/svg+xml</dc:format>
        <dc:type
           rdf:resource="http://purl.org/dc/dcmitype/StillImage" />
        <dc:title></dc:title>
      </cc:Work>
    </rdf:RDF>
  </metadata>
  <g
     id="layer1">
    <path
       d="M 127.98975,3.1577733 C 57.30787,3.1577733 0,60.465595 0,131.16332 c 0,56.55348 36.67284,104.52612 87.53717,121.45994 6.40434,1.17075 8.73803,-2.78172 8.73803,-6.17634 0,-3.03315 -0.11137,-11.08752 -0.17819,-21.76644 -35.60434,7.73219 -43.11639,-17.16171 -43.11639,-17.16171 -5.82276,-14.78075 -14.2151,-18.71758 -14.2151,-18.71758 -11.62168,-7.94435 0.87984,-7.78718 0.87984,-7.78718 12.84789,0.91147 19.60573,13.19345 19.60573,13.19345 11.41743,19.55835 29.96223,13.90851 37.25421,10.63963 1.16272,-8.2744 4.46335,-13.9164 8.12526,-17.11456 -28.42217,-3.22961 -58.30576,-14.21498 -58.30576,-63.26414 0,-13.97139 4.98969,-25.396815 13.17755,-34.346995 -1.32088,-3.23746 -5.71273,-16.25018 1.24959,-33.87551 0,0 10.74964,-3.44175 35.2034,13.12274 10.20748,-2.83672 21.16137,-4.25899 32.04466,-4.30614 10.86747,0.0468 21.82137,1.46944 32.04466,4.30614 24.43794,-16.56449 35.16419,-13.12274 35.16419,-13.12274 6.98571,17.62533 2.59297,30.63805 1.2741,33.87551 8.20367,8.95018 13.16196,20.375605 13.16196,34.346995 0,49.17487 -29.93082,59.99523 -58.44721,63.16199 4.59678,3.95253 8.69082,11.7633 8.69082,23.70734 0,17.10672 -0.15592,30.91308 -0.15592,35.1092 0,3.42607 2.30228,7.41003 8.80084,6.16062 C 219.35857,235.64229 256,187.7011 256,131.16332 256,60.465595 198.68433,3.1577733 127.98664,3.1577733"
       style="fill:#000000;fill-opacity:1;fill-rule:evenodd;stroke:none;stroke-width:7.85791"
       id="path24" />
  </g>
</svg>
